<svg width="860" height="480" viewBox="0 0 860 480" fill="none" xmlns="http://www.w3.org/2000/svg">
<path d="M278.075 17.6769C289.938 27.7658 301.227 42.363 303.05 58.1815C304.041 72.7713 302.766 85.5821 297.902 99.3662C296.986 102.94 296.202 106.529 295.51 110.153C295.299 111.244 295.087 112.335 294.87 113.458C288.952 154.825 303.426 199.302 327.801 232.404C328.915 233.957 328.915 233.957 330.052 235.541C334.981 242.062 340.608 247.871 346.338 253.679C347.076 254.429 347.814 255.18 348.574 255.954C357.247 265.399 357.247 265.399 368.463 269.559C374.208 256.647 379.916 243.718 385.61 230.783C386.389 229.014 387.168 227.244 387.947 225.475C391.937 216.414 395.922 207.351 399.885 198.279C400.478 196.922 401.071 195.566 401.682 194.168C402.77 191.679 403.855 189.189 404.939 186.698C407.091 181.775 409.275 176.898 411.709 172.107C413.621 168.341 415.171 164.548 416.6 160.567C418.884 154.499 421.43 148.654 424.224 142.813C428.285 134.322 432.122 125.748 435.885 117.12C440.471 106.614 445.115 96.1413 449.889 85.7211C452.458 80.1043 454.984 74.4733 457.436 68.8045C458.782 65.6956 460.139 62.5917 461.497 59.4879C462.462 57.2681 463.41 55.0411 464.358 52.8138C473.454 32.0561 487.618 14.786 508.913 6.17952C532.106 -2.14835 554.572 -0.694705 576.933 9.70024C584.685 13.8042 590.813 18.7594 596.89 25.0566C598.07 26.264 598.07 26.264 599.273 27.4958C610.94 40.1165 615.469 53.6666 615.278 70.6761C615.292 71.919 615.306 73.162 615.32 74.4426C615.295 80.9945 614.752 86.1863 612.182 92.2063C608.341 101.867 608.467 112.199 608.551 122.438C608.564 124.597 608.564 124.597 608.578 126.799C608.698 136.667 609.121 146.034 611.242 155.698C611.403 156.504 611.564 157.31 611.73 158.141C616.288 180.494 626.167 202.229 639.945 220.419C640.688 221.412 641.431 222.406 642.196 223.429C673.324 263.655 718.632 290.962 769.07 298.746C791.398 301.558 816.927 301.438 838.847 296.002C840.586 295.592 842.325 295.181 844.065 294.771C844.901 294.569 845.738 294.366 846.6 294.158C851.055 293.097 855.528 292.117 860 291.133C859.289 297.117 857.381 302.21 854.964 307.674C854.383 309.012 854.383 309.012 853.791 310.378C852.53 313.28 851.257 316.177 849.984 319.074C849.101 321.099 848.219 323.123 847.337 325.148C845.173 330.116 842.999 335.079 840.822 340.041C839.258 343.606 837.702 347.174 836.146 350.742C832.955 358.048 829.737 365.342 826.513 372.634C825.772 374.312 825.03 375.99 824.289 377.668C819.786 387.856 815.269 398.037 810.735 408.212C808.402 413.454 806.104 418.71 803.832 423.979C798.978 435.149 794.459 445.296 785.851 454.135C785.148 454.957 784.445 455.779 783.721 456.626C771.559 470.156 752.408 478.314 734.461 479.454C720.896 479.972 708.186 478.652 694.958 475.709C693.5 475.403 692.042 475.097 690.539 474.782C664.655 468.675 640.63 454.92 620.809 437.355C619.672 436.36 618.534 435.365 617.362 434.34C580.7 401.81 551.868 355.364 547.856 305.516C547.683 301.718 547.633 297.926 547.613 294.125C547.606 293.068 547.6 292.012 547.592 290.923C547.581 288.698 547.573 286.473 547.569 284.248C547.557 280.908 547.52 277.569 547.482 274.229C547.382 257.155 548.998 241.339 555.032 225.213C553.308 226.941 552.696 228.9 551.743 231.15C551.317 232.151 550.891 233.152 550.452 234.183C549.99 235.277 549.528 236.371 549.052 237.498C548.062 239.828 547.071 242.158 546.081 244.488C545.576 245.679 545.071 246.869 544.551 248.096C532.399 276.737 520.051 305.293 507.493 333.756C500.913 348.67 494.425 363.619 488.058 378.627C483.884 388.466 479.694 398.298 475.461 408.112C474.327 410.746 473.198 413.382 472.074 416.021C466.315 429.512 460.795 441.863 450.984 452.936C449.959 454.137 449.959 454.137 448.914 455.361C435.767 469.695 415.378 478.701 396.171 479.95C362.813 480.891 331.751 468.432 306.273 446.944C305.245 446.088 305.245 446.088 304.196 445.214C275.855 421.591 254.515 393.025 241.692 358.251C241.228 357.011 240.764 355.77 240.286 354.492C227.036 316.911 225.728 275.7 235.712 237.199C228.999 252.279 222.288 267.359 215.755 282.518C207.061 302.658 198.035 322.651 189.07 342.67C188.709 343.477 188.348 344.284 187.975 345.115C187.299 346.626 186.622 348.136 185.946 349.647C184.371 353.164 182.796 356.682 181.222 360.199C180.311 362.233 180.311 362.233 179.381 364.308C175.759 372.404 172.154 380.508 168.561 388.618C167.922 390.06 167.922 390.06 167.271 391.531C165.189 396.231 163.108 400.932 161.03 405.634C135.668 462.972 135.668 462.972 104.802 474.913C83.4538 481.816 58.4356 482.16 37.8052 472.576C34.2593 470.586 30.9341 468.47 27.6163 466.12C26.4485 465.311 26.4485 465.311 25.2571 464.486C11.4831 453.827 2.95813 437.151 0.445688 420.131C-1.52932 401.63 3.24063 385.052 11.1719 368.514C11.9151 366.921 12.656 365.328 13.3947 363.734C14.9415 360.4 16.4987 357.072 18.0632 353.747C21.6222 346.163 25.0519 338.521 28.4961 330.884C30.3812 326.709 32.2756 322.538 34.1706 318.367C34.7153 317.168 34.7153 317.168 35.2709 315.945C39.0062 307.728 42.7627 299.519 46.5226 291.313C51.0834 281.351 55.6093 271.374 60.1312 261.394C66.3923 247.578 72.67 233.769 78.9675 219.97C79.3634 219.102 79.7592 218.235 80.167 217.341C83.3834 210.293 86.6008 203.246 89.8183 196.199C110.855 150.156 110.855 150.156 131.664 104.011C135.154 96.2189 138.701 88.4582 142.334 80.7326C144.427 76.2672 146.465 71.7779 148.501 67.2865C149.523 65.044 150.547 62.8021 151.571 60.5605C152.564 58.3812 153.546 56.1974 154.529 54.0135C163.289 34.8795 174.854 16.6438 194.933 7.97733C198.142 6.80327 201.368 5.73668 204.617 4.68134C205.559 4.26883 206.501 3.85631 207.472 3.4313C230.336 -4.96005 259.545 2.90028 278.075 17.6769Z" fill="#FDFDFD"/>
</svg>
