<svg width="1180" height="140" viewBox="0 0 1180 140" fill="none" xmlns="http://www.w3.org/2000/svg">
<path d="M81.1125 5.15575C84.5729 8.09837 87.8659 12.3559 88.3977 16.9696C88.6867 21.2249 88.3149 24.9614 86.896 28.9818C86.629 30.0242 86.4 31.0711 86.1983 32.128C86.1367 32.4461 86.0751 32.7643 86.0116 33.0921C84.2853 45.1573 88.5074 58.1298 95.6173 67.7846C95.9424 68.2375 95.9424 68.2375 96.2741 68.6995C97.7116 70.6015 99.3532 72.2956 101.024 73.9896C101.24 74.2086 101.455 74.4276 101.677 74.6532C104.207 77.4082 104.207 77.4082 107.478 78.6215C109.154 74.8553 110.819 71.0845 112.48 67.3119C112.707 66.7957 112.934 66.2796 113.162 65.7634C114.326 63.1208 115.488 60.4775 116.644 57.8313C116.817 57.4357 116.99 57.0401 117.168 56.6325C117.485 55.9064 117.802 55.1802 118.118 54.4536C118.746 53.0176 119.383 51.5953 120.093 50.198C120.651 49.0994 121.103 47.9931 121.52 46.832C122.186 45.0623 122.928 43.3575 123.743 41.6539C124.928 39.1773 126.047 36.6764 127.145 34.1599C128.482 31.0959 129.837 28.0412 131.23 25.002C131.979 23.3638 132.716 21.7214 133.431 20.068C133.824 19.1612 134.22 18.2559 134.616 17.3506C134.897 16.7032 135.174 16.0536 135.45 15.404C138.104 9.3497 142.235 4.31257 148.447 1.80236C155.212 -0.626601 161.765 -0.202623 168.287 2.82924C170.549 4.02622 172.336 5.47148 174.109 7.30816C174.453 7.66033 174.453 7.66033 174.804 8.0196C178.207 11.7006 179.528 15.6528 179.473 20.6139C179.477 20.9764 179.481 21.3389 179.485 21.7124C179.478 23.6234 179.319 25.1377 178.57 26.8935C177.449 29.7114 177.486 32.7249 177.51 35.7111C177.514 36.3408 177.514 36.3408 177.518 36.9831C177.553 39.8612 177.677 42.5932 178.295 45.4118C178.342 45.647 178.389 45.8822 178.438 46.1245C179.767 52.6441 182.649 58.9835 186.668 64.2889C186.884 64.5786 187.101 64.8684 187.324 65.1669C196.404 76.8993 209.62 84.864 224.333 87.1341C230.845 87.9543 238.292 87.9195 244.686 86.3339C245.193 86.2142 245.701 86.0945 246.208 85.9748C246.452 85.9158 246.696 85.8569 246.948 85.7961C248.247 85.4866 249.552 85.2007 250.856 84.9138C250.649 86.6591 250.092 88.1446 249.387 89.7382C249.218 90.1286 249.218 90.1286 249.045 90.5268C248.677 91.3733 248.306 92.2183 247.935 93.0633C247.677 93.6537 247.42 94.2443 247.163 94.835C246.531 96.2838 245.897 97.7315 245.262 99.1787C244.806 100.218 244.352 101.259 243.898 102.3C242.967 104.431 242.029 106.558 241.089 108.685C240.872 109.174 240.656 109.664 240.44 110.153C239.126 113.125 237.809 116.094 236.486 119.062C235.806 120.591 235.135 122.124 234.473 123.661C233.057 126.919 231.738 129.878 229.228 132.456C229.023 132.696 228.817 132.935 228.606 133.182C225.059 137.129 219.473 139.508 214.238 139.841C210.281 139.992 206.573 139.607 202.715 138.748C202.289 138.659 201.864 138.57 201.426 138.478C193.875 136.697 186.868 132.685 181.086 127.562C180.754 127.272 180.422 126.982 180.08 126.683C169.387 117.195 160.976 103.648 159.806 89.1087C159.756 88.0011 159.741 86.8951 159.735 85.7864C159.733 85.4782 159.731 85.17 159.729 84.8525C159.726 84.2036 159.724 83.5546 159.722 82.9057C159.719 81.9315 159.708 80.9577 159.697 79.9836C159.668 75.0037 160.139 70.3906 161.899 65.6872C161.396 66.1912 161.218 66.7626 160.94 67.4187C160.816 67.7106 160.691 68.0026 160.563 68.3034C160.429 68.6225 160.294 68.9416 160.155 69.2703C159.866 69.9499 159.577 70.6295 159.288 71.3091C159.141 71.6563 158.994 72.0036 158.842 72.3614C155.297 80.7149 151.696 89.0437 148.032 97.3456C146.113 101.696 144.22 106.056 142.363 110.433C141.146 113.303 139.924 116.17 138.689 119.033C138.358 119.801 138.029 120.57 137.701 121.339C136.021 125.274 134.411 128.877 131.549 132.106C131.25 132.457 131.25 132.457 130.945 132.814C127.111 136.994 121.163 139.621 115.56 139.986C105.83 140.26 96.7696 136.626 89.338 130.359C89.038 130.109 89.038 130.109 88.7319 129.854C80.4652 122.964 74.2402 114.632 70.5 104.49C70.3646 104.128 70.2292 103.766 70.0898 103.393C66.2248 92.4325 65.8433 80.4125 68.7557 69.1829C66.7975 73.5814 64.84 77.9796 62.9342 82.4012C60.3984 88.2752 57.7655 94.1066 55.1505 99.9455C55.0451 100.181 54.9397 100.416 54.8312 100.659C54.6338 101.099 54.4365 101.54 54.2391 101.98C53.7797 103.006 53.3204 104.032 52.8611 105.058C52.5955 105.651 52.5955 105.651 52.3244 106.256C51.2678 108.618 50.2161 110.981 49.1682 113.347C48.9819 113.767 48.9819 113.767 48.7918 114.196C48.1844 115.567 47.5776 116.939 46.9715 118.31C39.5736 135.034 39.5736 135.034 30.5701 138.516C24.3429 140.53 17.0453 140.63 11.0275 137.835C9.99322 137.254 9.02328 136.637 8.05548 135.952C7.71484 135.716 7.71484 135.716 7.36732 135.475C3.34954 132.366 0.862866 127.502 0.130004 122.538C-0.446092 117.142 0.94527 112.307 3.25877 107.483C3.47556 107.019 3.69167 106.554 3.90716 106.089C4.35835 105.117 4.81255 104.146 5.26893 103.176C6.30705 100.964 7.30748 98.7352 8.31214 96.5078C8.86201 95.29 9.41458 94.0735 9.96735 92.8571C10.1262 92.5074 10.1262 92.5074 10.2883 92.1508C11.3779 89.7539 12.4736 87.3598 13.5703 84.9662C14.9007 82.0607 16.2209 79.1506 17.5399 76.24C19.3662 72.2102 21.1974 68.1827 23.0343 64.1578C23.1498 63.9048 23.2652 63.6518 23.3842 63.3911C24.3224 61.3355 25.2609 59.28 26.1994 57.2246C32.3356 43.7956 32.3356 43.7956 38.4056 30.3364C39.4235 28.0639 40.4581 25.8003 41.518 23.547C42.1284 22.2446 42.7228 20.9352 43.3168 19.6252C43.615 18.9712 43.9136 18.3173 44.2124 17.6635C44.5019 17.0278 44.7885 16.3909 45.075 15.754C47.6304 10.1732 51.0038 4.85444 56.8607 2.32672C57.7966 1.98429 58.7378 1.6732 59.6856 1.36539C59.9603 1.24507 60.2351 1.12476 60.5182 1.00079C67.1875 -1.44668 75.7077 0.845915 81.1125 5.15575Z" fill="white"/>
<path d="M307.492 128.333V11.55H332.647L365.317 101.383H365.644L398.15 11.55H423.306V128.333H404.357V39.8067H404.03L373.158 128.333H357.64L326.767 39.8067H326.44V128.333H307.492Z" fill="white"/>
<path d="M479.958 116.737C494.169 116.737 499.887 107.917 501.357 102.853H518.508C514.261 118.697 501.847 130.783 480.448 130.783C454.476 130.783 438.631 112.817 438.631 86.6833C438.631 59.57 454.476 42.5833 479.631 42.5833C506.584 42.5833 519.815 61.3667 519.815 91.0933H455.783C455.783 105.14 464.767 116.737 479.958 116.737ZM479.631 56.14C465.747 56.14 455.783 65.45 455.783 78.3533H502.663C502.663 65.45 493.516 56.14 479.631 56.14Z" fill="white"/>
<path d="M623.703 42.5833C640.528 42.5833 649.186 52.71 649.186 70.6767V128.333H631.871V75.5767C631.871 64.3067 629.584 57.12 617.823 57.12C606.225 57.12 599.038 65.1233 599.038 77.5367V128.333H581.723V75.5767C581.723 64.3067 579.436 57.12 567.511 57.12C556.077 57.12 548.726 65.1233 548.726 77.5367V128.333H531.575V44.87H548.726V55.65H549.053C553.464 49.1167 561.304 42.5833 573.882 42.5833C585.643 42.5833 592.667 47.9733 596.097 56.9567H596.424C602.631 48.9533 610.799 42.5833 623.703 42.5833Z" fill="white"/>
<path d="M702.01 116.737C716.221 116.737 721.938 107.917 723.408 102.853H740.56C736.313 118.697 723.898 130.783 702.5 130.783C676.527 130.783 660.683 112.817 660.683 86.6833C660.683 59.57 676.527 42.5833 701.683 42.5833C728.635 42.5833 741.867 61.3667 741.867 91.0933H677.834C677.834 105.14 686.818 116.737 702.01 116.737ZM701.683 56.14C687.798 56.14 677.834 65.45 677.834 78.3533H724.715C724.715 65.45 715.568 56.14 701.683 56.14Z" fill="white"/>
<path d="M865.683 69.86C865.683 86.03 860.946 100.24 852.452 110.857L865.52 123.923L854.086 135.357L840.528 121.8C831.707 127.517 820.763 130.783 808.348 130.783C773.065 130.783 751.013 104.977 751.013 69.86C751.013 34.7433 773.065 9.1 808.348 9.1C843.468 9.1 865.683 34.7433 865.683 69.86ZM808.348 114.123C816.189 114.123 822.723 112.327 828.113 109.223L812.268 93.38L823.703 81.9467L839.384 97.79C844.122 90.1133 846.245 80.3133 846.245 69.86C846.245 46.34 835.137 25.76 808.348 25.76C781.559 25.76 770.288 46.34 770.288 69.86C770.288 93.5433 781.559 114.123 808.348 114.123Z" fill="white"/>
<path d="M934.213 44.87H951.365V128.333H934.213V117.553H933.886C929.476 124.087 920.819 130.62 906.444 130.62C890.926 130.62 878.675 121.637 878.675 102.527V44.87H895.99V97.6267C895.99 108.897 900.727 116.083 912.488 116.083C925.719 116.083 934.213 108.08 934.213 95.6667V44.87Z" fill="white"/>
<path d="M1018.18 66.7567C1018.18 60.7133 1014.58 56.14 1003.15 56.14C989.427 56.14 984.364 60.3867 983.547 71.1667H966.885C967.702 55.16 977.993 42.5833 1003.15 42.5833C1021.61 42.5833 1035.33 49.6067 1035.33 71.82V111.51C1035.33 117.39 1036.64 120.493 1043.33 119.84V128.007C1039.41 129.477 1036.64 129.803 1033.37 129.803C1024.22 129.803 1019.97 126.537 1018.34 118.37H1018.01C1012.79 125.72 1003.31 130.783 990.408 130.783C973.419 130.783 962.965 120.983 962.965 106.937C962.965 88.6433 976.523 82.9267 997.432 78.8433C1010.34 76.3933 1018.18 74.76 1018.18 66.7567ZM994.165 117.227C1008.38 117.227 1018.18 110.203 1018.18 96.6467V84.07C1015.4 86.03 1008.7 87.99 1000.7 89.6233C986.487 92.7267 980.28 96.81 980.28 105.303C980.28 112.98 984.854 117.227 994.165 117.227Z" fill="white"/>
<path d="M1098.29 42.5833C1113.8 42.5833 1126.05 51.5667 1126.05 70.6767V128.333H1108.74V75.5767C1108.74 64.3067 1104 57.12 1092.24 57.12C1079.01 57.12 1070.52 65.1233 1070.52 77.5367V128.333H1053.36V44.87H1070.52V55.65H1070.84C1075.25 49.1167 1083.91 42.5833 1098.29 42.5833Z" fill="white"/>
<path d="M1180 58.9167H1164.32V104.16C1164.32 113.633 1168.89 114.777 1180 114.123V128.17C1176.57 128.987 1172.81 129.477 1168.24 129.477C1154.52 129.477 1147 123.27 1147 105.63V58.9167H1134.92V44.87H1147V18.5733H1164.32V44.87H1180V58.9167Z" fill="white"/>
</svg>
